<?xml version="1.0" encoding="iso-8859-1"?>
<!-- Generator: Adobe Illustrator 19.0.0, SVG Export Plug-In . SVG Version: 6.00 Build 0)  -->
<svg version="1.1" id="Capa_1" xmlns="http://www.w3.org/2000/svg" xmlns:xlink="http://www.w3.org/1999/xlink" x="0px" y="0px"
	 viewBox="0 0 512 512" style="enable-background:new 0 0 512 512;" xml:space="preserve">
<path style="fill:#ED3C94;" d="M256,0C115.3,0,0,115.3,0,256s115.3,256,256,256s256-115.3,256-256S396.7,0,256,0z"/>
<g>
	<path style="fill:#EB1D83;" d="M512,256c0,140.7-115.3,256-256,256V0C396.7,0,512,115.3,512,256z"/>
	<path style="fill:#EB1D83;" d="M256,61C148.599,61,61,148.599,61,256c0,107.399,87.599,195,195,195s195-87.601,195-195
		C451,148.599,363.401,61,256,61z"/>
</g>
<path style="fill:#D31372;" d="M451,256c0,107.399-87.599,195-195,195V61C363.401,61,451,148.599,451,256z"/>
<path style="fill:#E7E7E7;" d="M309.101,224.2L256,277.299l-31.8,31.8c-2.999,3.001-6.899,4.2-10.499,4.2
	c-3.9,0-7.8-1.199-10.801-4.2c-5.7-5.999-5.7-15.298,0-21.299l84.901-84.901c6-5.7,15.3-5.7,21.301,0
	C314.801,208.9,314.801,218.2,309.101,224.2z"/>
<path style="fill:#D3D3D8;" d="M309.101,224.2L256,277.299V234.7l31.8-31.8c6-5.7,15.3-5.7,21.301,0
	C314.801,208.9,314.801,218.2,309.101,224.2z"/>
<path style="fill:#E7E7E7;" d="M309.101,309.099c-3.001,3.001-6.901,4.2-10.801,4.2c-3.6,0-7.5-1.199-10.499-4.2l-31.8-31.8
	L202.899,224.2c-5.7-6-5.7-15.3,0-21.301c6-5.7,15.3-5.7,21.301,0l84.901,84.901C314.801,293.8,314.801,303.1,309.101,309.099z"/>
<path style="fill:#D3D3D8;" d="M309.101,309.099c-3.001,3.001-6.901,4.2-10.801,4.2c-3.6,0-7.5-1.199-10.499-4.2l-31.8-31.8V234.7
	l53.101,53.101C314.801,293.8,314.801,303.1,309.101,309.099z"/>
<g>
	<path style="fill:#444444;" d="M319.633,237.338c-11.514,0-23.042-4.38-31.816-13.14c-17.534-17.563-17.534-46.113-0.015-63.662
		c0.015,0,0.015,0,0.015-0.015c17.534-17.52,46.084-17.52,63.647,0c17.534,17.563,17.534,46.113,0.015,63.662
		C342.689,232.943,331.161,237.338,319.633,237.338z"/>
	<path style="fill:#444444;" d="M319.633,364.618c-11.514,0-23.042-4.38-31.816-13.14c0-0.015,0-0.015-0.015-0.015
		c-17.52-17.549-17.52-46.099,0-63.647c17.563-17.505,46.099-17.549,63.662-0.015c17.534,17.563,17.534,46.113,0.015,63.662
		C342.689,360.224,331.161,364.618,319.633,364.618z"/>
</g>
<g>
	<path style="fill:#5A5A5A;" d="M192.353,364.618c-11.514,0-23.042-4.38-31.816-13.14c-17.534-17.563-17.534-46.113-0.015-63.662
		c0.015,0,0.015,0,0.015-0.015c17.563-17.534,46.113-17.505,63.647,0c17.534,17.563,17.534,46.113,0.015,63.662
		C215.409,360.224,203.881,364.618,192.353,364.618z"/>
	<path style="fill:#5A5A5A;" d="M192.353,237.338c-11.514,0-23.042-4.38-31.816-13.14c0-0.015,0-0.015-0.015-0.015
		c-17.52-17.549-17.52-46.099,0-63.647c17.563-17.52,46.099-17.534,63.662-0.015c17.534,17.563,17.534,46.113,0.015,63.662
		C215.409,232.943,203.881,237.338,192.353,237.338z"/>
</g>
<g>
</g>
<g>
</g>
<g>
</g>
<g>
</g>
<g>
</g>
<g>
</g>
<g>
</g>
<g>
</g>
<g>
</g>
<g>
</g>
<g>
</g>
<g>
</g>
<g>
</g>
<g>
</g>
<g>
</g>
</svg>
