<svg xmlns="http://www.w3.org/2000/svg" viewBox="0 0 26.534 26.534">
    <defs>
        <style>
            .cls-1{fill:rgba(0,0,0,.3)}
        </style>
    </defs>
    <path id="plus" d="M19.528 4.569l-5.734 5.769 5.734 5.735a.613.613 0 0 1 0 .868l-2.6 2.6a.612.612 0 0 1-.867 0l-5.73-5.721-5.69 5.725a.613.613 0 0 1-.868 0l-2.6-2.6a.614.614 0 0 1 0-.868l5.687-5.728-5.69-5.69a.614.614 0 0 1 0-.868l2.6-2.6a.613.613 0 0 1 .868 0l5.68 5.68L16.057 1.1a.612.612 0 0 1 .867 0l2.6 2.6a.615.615 0 0 1 0 .868z" class="cls-1" transform="rotate(45 8.252 15.317)"/>
</svg>
